<svg width="157" height="30" viewBox="0 0 157 30" fill="none" xmlns="http://www.w3.org/2000/svg">
<g clip-path="url(#clip0_122117_8350)">
<path d="M19.1068 26.7594C18.7518 28.0015 17.9036 28.9737 16.4932 28.9814C13.2851 28.9839 10.0586 29.0379 6.85141 28.9952C5.87923 28.9795 4.23639 28.5172 3.99703 27.4814C3.6479 25.9705 3.90042 26.1376 2.84514 25.7682C2.55519 25.6667 2.69713 22.5625 2.76066 22.1776C2.84651 21.6575 3.28538 21.7647 3.67606 21.4945C3.81446 19.8188 3.74669 15.5772 3.68534 13.8085C3.44541 13.6854 3.1969 13.5934 2.94587 13.4951C2.43019 12.8443 2.70377 10.6582 2.72426 9.77479C3.19873 9.04016 3.86585 9.62752 3.81159 8.39536C3.636 4.40548 9.60449 5.35636 12.2835 5.25996C20.1003 4.97869 19.333 6.99169 18.9927 13.3531C18.8876 15.5882 18.8406 17.8256 18.8517 20.0631C18.8424 21.3198 18.8262 22.5164 18.8943 23.7727C18.9417 24.6475 19.1712 25.9306 19.1068 26.7594ZM12.0379 22.0629C13.6655 21.8516 15.0526 20.7906 15.6694 19.2851C16.2862 17.7796 16.0374 16.0621 15.0179 14.7887C13.9985 13.5154 12.3659 12.883 10.7439 13.1329C8.27757 13.513 6.57875 15.7854 6.93315 18.2306C7.28742 20.6756 9.56305 22.384 12.0379 22.0629Z" fill="#47C2FF"/>
<path d="M19.1068 26.7594C18.7518 28.0015 17.9036 28.9737 16.4932 28.9814C13.2851 28.9839 10.0586 29.0379 6.85141 28.9952C5.87923 28.9795 4.23639 28.5172 3.99703 27.4814C3.6479 25.9705 3.90042 26.1376 2.84514 25.7682C2.55519 25.6667 2.69713 22.5625 2.76066 22.1776C2.84651 21.6575 3.28538 21.7647 3.67606 21.4945C3.81446 19.8188 3.74669 15.5772 3.68534 13.8085C3.44541 13.6854 3.1969 13.5934 2.94587 13.4951C2.43019 12.8443 2.70377 10.6582 2.72426 9.77479C3.19873 9.04016 3.86585 9.62752 3.81159 8.39536C3.636 4.40548 9.60449 5.35636 12.2835 5.25996C20.1003 4.97869 19.333 6.99169 18.9927 13.3531C18.8876 15.5882 18.8406 17.8256 18.8517 20.0631L18.2726 20.2248C18.2693 17.8511 18.2603 15.4793 18.2974 13.1057C18.3242 11.3947 18.5983 9.66173 18.4097 7.96093C18.3251 7.19798 17.7879 6.73738 17.2146 6.29082C14.688 5.84767 8.31306 5.84348 5.83116 6.25231C5.25298 6.67655 5.09135 6.81158 4.59937 7.34151C4.52439 7.83519 4.34925 8.60289 4.50104 9.04956C4.78526 9.4269 5.2033 9.31362 5.33254 9.5574C5.79533 10.4309 5.53629 11.9175 5.57418 12.9012C5.60268 13.6405 4.4944 13.5751 4.47345 14.0287C4.35749 16.5384 4.4833 19.0405 4.41679 21.5575C4.81399 21.6301 5.20341 21.6576 5.48615 21.9409C5.6266 22.5327 5.58425 24.8532 5.52999 25.5076C4.92812 26.2126 4.34719 25.5517 4.42652 26.7033C4.45777 27.9469 6.25927 28.4245 7.27586 28.4032C8.48991 28.3777 9.9551 28.4905 11.1745 28.414C12.7002 28.3181 15.3404 28.64 16.7157 28.3315C17.4364 28.2137 17.9086 27.765 18.3472 27.227C18.4731 26.9942 18.612 26.7677 18.7467 26.5397L19.1068 26.7594Z" fill="#18658B"/>
<path d="M3.48164 22.3158L3.49778 22.2137C3.98885 22.1736 4.47293 22.1709 4.96549 22.1777C4.97362 23.0211 5.27994 24.5314 4.78967 25.2233C4.46469 25.4503 4.14567 25.3661 3.78853 25.4555C3.63652 25.3884 3.51724 25.3635 3.43665 25.2082C3.13068 24.6184 3.30536 22.9466 3.48164 22.3158Z" fill="#47C2FF"/>
<path d="M3.48164 22.3164L3.79036 22.2676C4.04334 22.475 4.08249 22.5688 4.11717 22.8949C4.19478 23.6251 4.18803 24.7587 3.81772 25.4009C3.8112 25.4122 3.80593 25.4242 3.79986 25.4356C3.79631 25.4425 3.79231 25.4493 3.78853 25.4561C3.63652 25.389 3.51724 25.3641 3.43665 25.2088C3.13068 24.6191 3.30536 22.9473 3.48164 22.3164Z" fill="#BDDDF2"/>
<path d="M4.48418 9.78619L5.01562 9.94791L5.07673 12.9756L4.18874 13.2166L3.65131 13.1885C3.65131 13.1885 3.40336 13.0081 3.31453 12.9756L3.31465 12.3331L3.31476 11.7476L3.31453 10.1352C3.3032 9.68456 4.48418 9.78619 4.48418 9.78619Z" fill="#47C2FF"/>
<path d="M18.2726 20.2251L18.8517 20.0635C18.8425 21.3202 18.8262 22.5168 18.8943 23.7731C18.9417 24.6479 19.1712 25.931 19.1069 26.7598L18.7468 26.5401C18.7478 26.3853 18.7252 26.2683 18.6946 26.1177C18.2927 24.1432 18.2667 22.227 18.2726 20.2251Z" fill="#2F6792"/>
<path d="M17.7245 26.4756L18.3473 27.2274C17.9086 27.7654 17.4365 28.2141 16.7158 28.3319C16.3708 28.3404 16.0197 28.3519 15.6751 28.3301C15.4185 28.3138 14.97 28.2517 14.7905 28.0523C15.0482 27.5419 16.2674 27.4008 16.7878 27.149C17.1195 26.9886 17.4371 26.7051 17.7245 26.4756Z" fill="#9ACEF0"/>
<path d="M7.8697 6.73717C6.85231 6.96 5.77631 7.15733 5.44595 8.27599C5.37292 8.52294 5.34797 8.71359 5.15486 8.8757C4.0317 8.02983 5.56008 6.88195 6.33148 6.57133C6.72605 6.4124 7.08937 6.42293 7.50478 6.43018L7.8697 6.73717Z" fill="#F0F5F6"/>
<path d="M7.50488 6.43025C8.09588 6.4085 9.9418 6.3556 10.4355 6.54002C9.92085 6.65681 8.36797 6.79479 7.86981 6.73724L7.50488 6.43025Z" fill="#F0F5F6"/>
<path d="M31.7737 14.503C31.7824 13.7611 31.6241 11.9824 31.3058 11.3417C30.753 10.2919 29.9253 9.61124 29.9067 8.35099C29.8513 5.33227 34.5616 3.56814 36.7056 5.53323C37.2701 6.05081 37.5964 7.0239 37.6956 7.76883C37.9575 9.7354 37.8072 11.7764 37.7687 13.7604C37.7223 16.2271 37.7108 18.6944 37.7344 21.1615C37.7222 22.3727 37.7616 22.853 38.1692 24.0097C38.5065 25.1514 39.5554 25.6582 39.1729 27.1848C38.5366 29.7253 33.6103 29.6328 32.4084 27.6393C27.8848 30.9099 21.0442 29.5286 19.8864 23.5558C19.3867 20.9788 19.8998 18.2391 21.4032 16.0514C22.4695 14.4773 24.1342 13.3974 26.0181 13.0578C28.2165 12.646 29.9893 13.301 31.7737 14.503ZM31.6047 22.3249C31.8802 20.2692 31.3447 18.1351 29.2168 17.3199C28.815 17.2749 28.2626 17.3183 27.8464 17.3383C26.7331 18.1679 26.1988 18.8377 25.9743 20.2568C25.687 22.0725 26.5997 24.5731 28.6539 24.875C30.2522 25.1098 31.2854 23.6881 31.6047 22.3249Z" fill="#47C2FF"/>
<path d="M31.7737 14.503C31.7824 13.7611 31.6241 11.9824 31.3058 11.3417C30.753 10.2919 29.9253 9.61124 29.9067 8.35099C29.8513 5.33227 34.5616 3.56814 36.7056 5.53323C37.2701 6.05081 37.5964 7.0239 37.6956 7.76883C37.9575 9.7354 37.8072 11.7764 37.7687 13.7604C37.7223 16.2271 37.7108 18.6944 37.7344 21.1615C37.208 20.9498 37.3441 21.078 37.035 20.6287C37.0242 18.9788 37.3453 9.32226 37.0679 8.47106C37.0468 7.21546 36.7571 6.42532 35.6521 5.77327C33.2379 4.45524 29.1159 7.18102 31.0132 9.64251C32.1888 11.6255 32.0333 11.7953 32.148 13.9242C32.1767 14.2927 32.2265 14.5588 32.0746 14.9008C31.9416 14.9815 31.8483 15.0651 31.6927 14.9776C29.5308 13.7629 26.9814 12.8769 24.5179 14.2605C24.3983 14.328 24.28 14.3979 24.1633 14.4703L23.9205 14.6008C19.0818 17.2833 18.9117 26.7192 25.2241 28.4603C27.1836 28.992 29.2757 28.7423 31.0513 27.765C31.508 27.5099 32.088 27.0713 32.4734 26.7272C32.7858 27.2398 33.0067 27.642 33.4363 28.0744C36.4149 29.1975 40.1825 28.4463 37.7255 24.4289L38.1692 24.0097C38.5065 25.1514 39.5554 25.6582 39.1729 27.1848C38.5366 29.7253 33.6103 29.6328 32.4084 27.6393C27.8848 30.9099 21.0442 29.5286 19.8864 23.5558C19.3867 20.9788 19.8998 18.2391 21.4032 16.0514C22.4695 14.4773 24.1342 13.3974 26.0181 13.0578C28.2165 12.646 29.9893 13.301 31.7737 14.503Z" fill="#18658B"/>
<path d="M37.0679 8.47134C36.3016 7.99975 36.288 6.91837 35.4375 6.3625C34.0689 5.46814 32.9748 6.57229 32.0835 6.7276L32.0649 6.52109C32.5949 5.66219 34.7575 5.6742 35.6521 5.77355C36.7571 6.4256 37.0468 7.21573 37.0679 8.47134Z" fill="#F0F5F6"/>
<path d="M31.0134 9.64192C31.1717 9.56749 31.2954 9.45942 31.4747 9.4985C32.5324 9.72881 33.0749 13.3611 32.3338 13.9194L32.1483 13.9236C32.0336 11.7947 32.189 11.6249 31.0134 9.64192Z" fill="#71BCEC"/>
<path d="M37.0352 20.6289C37.3442 21.0782 37.2081 20.9499 37.7346 21.1617C37.7223 22.3729 37.7618 22.8532 38.1693 24.0099L37.7256 24.429C37.1282 22.6676 37.1257 22.6003 37.0352 20.6289Z" fill="#1E5380"/>
<path d="M24.1634 14.4701C24.9006 14.3962 25.2879 14.3043 26.0023 14.1299C25.5374 14.3686 24.1351 15.1661 23.7277 15.2078L23.6497 15.0851L23.9206 14.6006L24.1634 14.4701Z" fill="#BDDDF2"/>
<path d="M27.7376 16.8694C28.5378 16.7371 28.915 16.7528 29.704 16.9226C31.1314 17.5052 31.694 18.3888 32.0813 19.8501C32.3886 21.0101 32.0633 21.6584 32.101 22.6932C31.8321 23.9624 30.9638 24.6907 29.9197 25.3371C29.3791 25.3941 28.4547 25.4694 27.9666 25.2878C24.384 23.9543 24.4732 18.5092 27.7376 16.8694ZM31.6049 22.3244C31.8803 20.2687 31.3448 18.1346 29.2169 17.3194C28.8152 17.2744 28.2627 17.3178 27.8465 17.3378C26.7332 18.1674 26.1989 18.8371 25.9744 20.2563C25.6871 22.072 26.5999 24.5726 28.654 24.8745C30.2523 25.1093 31.2855 23.6876 31.6049 22.3244Z" fill="#18658B"/>
<path d="M86.4806 21.9077C87.1651 20.9339 88.8798 16.1744 89.5048 14.85C89.8654 13.7678 90.9586 11.6022 90.2729 10.4823C89.2724 8.73102 88.2846 7.65043 90.2534 5.96809C92.3883 4.22684 99.5608 3.64118 98.1712 8.13584C97.8839 8.8187 97.3768 9.54948 96.9326 10.1382C94.9764 12.7301 93.6405 15.4915 92.291 18.4265L91.8674 19.3763C91.4508 20.4262 90.0497 23.803 89.5472 24.7081C89.1706 25.532 88.8134 26.3773 88.3258 27.1442C86.7015 29.7864 83.327 30.3136 81.6557 27.4929C79.8872 24.5084 78.6727 20.7233 77.3471 17.4545C77.1514 17.0665 76.9877 16.703 76.8137 16.3053C76.2814 15.1255 75.5911 13.9271 74.9463 12.7986C74.2011 11.7642 71.9693 9.50473 71.6742 8.74269C70.5773 7.22279 71.7524 5.51802 73.274 5.05935C75.7006 4.32789 82.1273 4.8116 83.6704 6.9866C84.047 7.51812 84.19 8.17832 84.0664 8.81621C83.9474 9.45228 83.1713 10.8456 83.1953 11.2817C83.3338 13.7896 84.9982 17.7718 85.7571 20.2461C86.1223 20.869 86.2413 21.2362 86.4806 21.9077Z" fill="#47C2FF"/>
<path d="M86.4807 21.9077C87.1652 20.9339 88.88 16.1744 89.505 14.85C89.8655 13.7678 90.9587 11.6022 90.273 10.4823C89.2726 8.73102 88.2847 7.65043 90.2536 5.96809C92.3884 4.22684 99.561 3.64118 98.1714 8.13584C97.884 8.8187 97.3769 9.54948 96.9328 10.1382C94.9765 12.7301 93.6407 15.4915 92.2911 18.4265L91.7691 18.0928C92.8669 15.5013 94.0516 13.0767 95.6668 10.7534C96.0754 10.1654 96.5127 9.53792 96.8767 8.92688C96.9282 8.87591 97.1308 8.55951 97.1846 8.4784C99.1707 5.52833 95.059 4.94448 93.0111 5.48506C91.3754 5.91689 90.3085 6.2863 89.7339 7.97079C90.0029 8.75039 91.0686 10.7441 91.072 11.2885C91.0835 13.045 87.9299 21.1225 86.926 22.1351L86.7257 22.1971C86.6307 22.1025 86.5402 22.0255 86.4807 21.9077Z" fill="#18658B"/>
<path d="M71.6742 8.74184C70.5773 7.22195 71.7524 5.51718 73.274 5.0585C75.7006 4.32705 82.1273 4.81076 83.6704 6.98576C84.047 7.51727 84.19 8.17747 84.0664 8.81536C83.9474 9.45144 83.1713 10.8448 83.1953 11.2808C83.3338 13.7887 84.9982 17.7709 85.7571 20.2452L85.2761 20.2939C85.1121 19.9893 82.8084 13.4457 82.6001 12.4327C82.3563 11.2507 82.8393 10.2538 83.2606 9.14139C83.8787 7.5107 82.4662 6.42501 81.0239 6.05221C78.3842 5.45057 74.9162 4.88734 72.4374 6.23493C71.2072 6.90861 72.0077 8.20942 72.2004 9.19531C72.0573 9.0204 71.9272 8.86792 71.7746 8.70117L71.6742 8.74184Z" fill="#18658B"/>
<path d="M85.7571 20.2452L85.2761 20.2939C85.5644 21.3459 86.003 22.0088 86.4327 22.5412C86.4934 22.6559 86.5196 22.6426 86.5742 22.5412L87.0378 22.0088L86.7292 22.1303L86.4934 21.9148C86.2568 21.2977 86.111 20.8462 85.7571 20.2452Z" fill="#18658B"/>
<path d="M77.9161 17.2793C78.873 19.0264 79.4957 21.1881 80.3027 23.0276C81.1864 25.0416 81.8881 27.9371 84.2714 28.6314C84.4751 28.6909 84.68 28.7446 84.8872 28.7925C86.2917 28.4134 86.6946 28.2072 87.631 27.0572L88.3258 27.1437C86.7015 29.7859 83.327 30.3131 81.6558 27.4924C79.8872 24.5079 78.6727 20.7228 77.3472 17.454L77.9161 17.2793Z" fill="#18658B"/>
<path d="M71.6743 8.74226L71.7747 8.7016C71.9273 8.86835 72.0574 9.02082 72.2005 9.19573C72.0078 8.20984 71.2073 6.90904 72.4375 6.23535L72.4391 6.36381C72.7962 6.93906 72.7677 7.36148 72.7512 8.03573C72.928 8.77013 73.5155 9.42637 73.9851 10.043L73.7472 10.3686C74.3339 11.0134 74.9677 11.7753 75.4391 12.5084L74.9464 12.7982C74.2012 11.7638 71.9694 9.50431 71.6743 8.74226Z" fill="#2F6792"/>
<path d="M72.0818 8.25526L72.7511 8.03516C72.9278 8.76956 73.5154 9.4258 73.9849 10.0424L73.7471 10.3681C73.0077 9.65655 72.4923 9.21691 72.0818 8.25526Z" fill="#47C2FF"/>
<path d="M72.4389 6.36426C72.7961 6.9395 72.7676 7.36192 72.7511 8.03617L72.0818 8.25628C71.7874 7.5118 72.063 7.00192 72.4389 6.36426Z" fill="#47C2FF"/>
<path d="M73.9849 10.043C75.5079 11.7757 76.3112 12.7523 77.3929 14.8119L76.9751 15.1898L77.1285 15.5083C76.8583 15.7836 76.9098 15.8796 76.8137 16.3049C76.2814 15.1251 75.591 13.9267 74.9462 12.7982L75.4389 12.5084C74.9675 11.7753 74.3337 11.0134 73.7471 10.3687L73.9849 10.043Z" fill="#47C2FF"/>
<path d="M75.439 12.5088C76.0846 13.3931 76.4795 14.2201 76.9751 15.1902L77.1285 15.5087C76.8584 15.784 76.9099 15.8799 76.8137 16.3053C76.2814 15.1255 75.5911 13.9271 74.9463 12.7986L75.439 12.5088Z" fill="#2F6792"/>
<path d="M91.1199 19.534L91.8674 19.376C91.4507 20.4259 90.0496 23.8027 89.5471 24.7078C89.3193 24.582 89.1854 24.4477 89.0286 24.2431C89.7383 22.6957 90.4274 21.0943 91.1199 19.534Z" fill="#18658B"/>
<path d="M93.2766 13.1701C93.8535 11.7207 94.7052 10.5484 95.6392 9.3097C96.3798 8.32868 96.8938 7.88281 96.9602 6.60318L97.0518 6.53125L97.2532 6.67953C97.4169 7.22544 97.2578 7.76601 97.1102 8.30387C97.0564 8.38498 96.8537 8.70138 96.8022 8.75235C95.6621 9.50726 94.5976 11.9139 93.2766 13.1701Z" fill="#F0F5F6"/>
<path d="M76.9751 15.1894L77.3929 14.8115C77.7272 15.3937 78.1896 16.0975 78.3087 16.7418C78.2228 17.0469 78.2617 16.9499 77.9309 17.1692L77.9161 17.279L77.3471 17.4537C77.1514 17.0657 76.9877 16.7022 76.8137 16.3046C76.9099 15.8792 76.8584 15.7833 77.1285 15.508L76.9751 15.1894Z" fill="#47C2FF"/>
<path d="M76.8137 16.3054C76.9099 15.88 76.8584 15.7841 77.1285 15.5088L77.9309 17.1701L77.9161 17.2798L77.3471 17.4545C77.1514 17.0665 76.9877 16.703 76.8137 16.3054Z" fill="#18658B"/>
<path d="M89.0285 24.2432C89.1853 24.4478 89.3193 24.5821 89.5471 24.7078C89.1705 25.5317 88.8133 26.377 88.3257 27.144L87.6309 27.0574C88.1322 26.1304 88.6004 25.2063 89.0285 24.2432Z" fill="#18658B"/>
<path d="M91.1199 19.5343C91.1874 19.3115 91.6476 18.3582 91.7689 18.0928L92.2909 18.4265L91.8674 19.3762L91.1199 19.5343Z" fill="#18658B"/>
<path d="M97.2107 14.0484C98.4206 13.2282 99.3249 12.6437 100.761 12.2882C103.928 11.5042 107.999 12.0479 109.962 14.9035C111.81 17.5911 110.78 20.8491 111.502 23.8154C111.789 24.9987 113.374 26.5964 113.155 27.6764C112.82 29.3298 109.837 29.1706 108.614 28.8545C107.721 28.624 107.476 28.3965 106.889 27.8161C104.869 29.1891 102.315 29.7325 99.8949 29.2113C92.4247 27.6021 93.1642 18.9617 97.0138 14.1627L97.2107 14.0484Z" fill="#18658B"/>
<path d="M107.095 26.9259C106.462 27.3935 105.797 27.8683 105.063 28.1392C101.501 29.4269 96.9591 28.6266 95.3943 24.8072C93.6841 20.6321 95.7411 14.8664 100.085 13.1901C102.235 12.3603 104.826 12.4592 106.959 13.3692C107.993 13.8737 109.078 14.6641 109.579 15.7204C111.351 17.6425 109.601 23.2927 111.696 25.4856C113.017 26.8683 112.836 28.543 110.511 28.4266C108.684 28.3352 108.145 28.6454 107.095 26.9259Z" fill="#47C2FF"/>
<path d="M106.959 13.3703C107.993 13.8749 109.078 14.6652 109.579 15.7216C109.602 15.8189 109.604 15.8638 109.557 15.9229C109.479 15.958 109.441 15.9674 109.343 15.8638C109.038 15.6419 106.881 13.8357 106.798 13.6315C106.461 13.3299 106.557 13.3029 106.959 13.3703Z" fill="#F0F5F6"/>
<path d="M125.601 27.5209C123.286 29.7527 118.144 30.0693 115.731 27.8232C113.017 25.2968 114.423 21.4061 113.895 18.2272C113.703 17.1207 112.59 15.6142 112.586 14.5474C112.578 11.6167 118.646 11.8398 120.032 13.3578C121.289 14.7352 120.43 17.1055 120.349 18.7363C120.254 20.6688 119.594 24.6172 122.599 24.5734C125.557 24.4637 125.127 20.0105 124.699 18.0603C124.486 17.0892 123.898 16.1611 123.88 15.106C123.864 14.434 124.12 13.7837 124.593 13.3009C126.116 11.7655 131.178 11.5066 131.575 14.072C131.92 16.2953 131.141 19.3471 131.131 21.742C131.171 22.5197 131.222 23.3383 131.531 24.0629C132.109 25.0853 132.812 25.9999 132.453 27.2229C132.39 27.4413 132.266 27.642 132.142 27.8322C131.617 28.5154 130.854 28.933 129.993 29.0518L129.962 29.0559C129.171 29.2026 128.319 29.2718 127.531 29.0781C126.588 28.8459 126.09 28.3169 125.601 27.5209Z" fill="#47C2FF"/>
<path d="M125.601 27.5209C123.286 29.7527 118.144 30.0693 115.731 27.8232C113.017 25.2968 114.423 21.4061 113.895 18.2272C113.703 17.1207 112.59 15.6142 112.586 14.5474C112.578 11.6167 118.646 11.8398 120.032 13.3578C121.289 14.7352 120.43 17.1055 120.349 18.7363C120.254 20.6688 119.594 24.6172 122.599 24.5734C125.557 24.4637 125.127 20.0105 124.699 18.0603C124.486 17.0892 123.898 16.1611 123.88 15.106C123.864 14.434 124.12 13.7837 124.593 13.3009C126.116 11.7655 131.178 11.5066 131.575 14.072C131.92 16.2953 131.141 19.3471 131.131 21.742C130.893 21.7115 130.823 21.7136 130.646 21.5569C130.44 20.97 130.543 20.1205 130.551 19.4448C130.546 17.4848 132.292 12.8954 128.795 12.6878C128.223 12.6538 126.931 12.8962 126.404 13.1285L125.51 13.5374C123.591 14.8219 125.013 16.2696 125.364 18.0377C125.797 20.0342 125.945 23.2508 124.135 24.6358C123.157 25.3836 120.974 25.4465 120.228 24.2211C119.243 22.6071 119.593 20.3497 119.674 18.6036C119.732 17.3512 120.298 15.0649 119.716 14.0648C118.75 12.4059 113.526 12.3724 113.042 14.5736C112.814 15.6117 114.269 16.748 114.352 17.8854C115.242 22.0231 113.144 27.7358 119.264 28.6474C122.028 29.059 123.634 28.311 125.755 26.5132C125.966 26.9124 126.273 27.5383 126.5 27.9067C127.58 28.5578 128.521 28.7377 129.782 28.4923L129.791 28.9529L129.962 29.0559C129.171 29.2026 128.319 29.2718 127.531 29.0781C126.588 28.8459 126.09 28.3169 125.601 27.5209Z" fill="#18658B"/>
<path d="M131.531 24.0635C132.109 25.0858 132.812 26.0005 132.453 27.2235C132.39 27.4419 132.266 27.6426 132.142 27.8328L131.768 27.4156C132.126 26.1033 131.664 25.4659 131.017 24.3445L131.531 24.0635Z" fill="#18658B"/>
<path d="M130.551 19.4453C130.543 20.121 130.44 20.9705 130.646 21.5574C130.823 21.7141 130.893 21.7121 131.131 21.7425C131.171 22.5202 131.222 23.3388 131.531 24.0634L131.017 24.3445C130.631 22.7146 130.211 21.1209 130.551 19.4453Z" fill="#18658B"/>
<path d="M131.768 27.416L132.142 27.8332C131.616 28.5164 130.854 28.934 129.993 29.0528L129.962 29.0569L129.791 28.9539L129.781 28.4933C130.626 28.2842 131.192 28.0857 131.768 27.416Z" fill="#18658B"/>
<path d="M126.76 13.1149C127.48 12.9099 127.779 12.857 128.333 13.1783C128.065 13.6449 126.567 13.9498 126.06 13.7752C125.789 13.731 125.647 13.7015 125.866 13.5239C126.269 13.2875 126.45 13.2151 126.76 13.1149Z" fill="#F0F5F6"/>
<path d="M60.1351 19.3396C59.4178 19.1198 58.4522 18.8406 58.1266 18.0667C57.1827 15.8227 58.7997 14.2029 60.6977 13.2299C64.0529 11.5098 70.6396 11.3239 72.6181 15.1979C74.2087 18.3127 72.7023 21.8878 74.2988 25.3509C74.7766 26.0428 75.2985 26.6834 75.1274 27.5759C75.0443 28.01 74.7787 28.3628 74.4085 28.6028C73.4359 29.2333 71.7599 29.1478 70.6544 28.9121C70.1706 28.809 69.6765 28.5997 69.283 28.2986C68.9117 28.0223 68.6401 27.6319 68.3592 27.2702L67.9482 27.6858C67.5892 27.9995 67.2051 28.2905 66.775 28.5028C64.8583 29.4491 62.0934 29.6633 60.0609 28.9831C58.9111 28.5983 57.8985 27.8522 57.3632 26.7545C56.8242 25.6492 56.8189 24.0807 57.2271 22.9216C57.4049 22.5062 57.5979 22.1264 57.8394 21.7437C59.2401 19.8092 61.9337 19.1721 64.1632 18.7418C65.3155 18.5184 66.1803 18.3501 67.3599 18.2515C66.9881 17.0583 65.814 15.1085 64.2644 15.7994C61.8111 16.8931 63.2068 18.4391 60.1351 19.3396ZM67.471 20.9057C66.0494 21.1597 64.289 21.4629 63.3988 22.7027C62.1857 24.3921 63.883 26.1044 65.6299 25.1484C67.4884 23.921 67.1926 22.8509 67.471 20.9057Z" fill="#47C2FF"/>
<path d="M60.1349 19.3396C59.4176 19.1198 58.452 18.8406 58.1264 18.0667C57.1825 15.8227 58.7995 14.2029 60.6975 13.2299C64.0527 11.5098 70.6394 11.3239 72.6179 15.1979C74.2085 18.3127 72.7021 21.8878 74.2986 25.3509C74.1527 25.4085 73.9668 25.4614 73.8388 25.5488C72.4698 23.4435 73.0484 20.2074 72.6826 17.7583C71.9715 12.9977 67.7431 12.2363 63.6796 12.9226C61.5455 13.2831 58.0013 14.6913 58.567 17.3925C58.7551 18.2904 59.8748 19.0329 60.7742 18.5894C62.2602 17.8062 62.5051 15.6162 64.3299 15.2568C65.7103 14.9621 67.3964 16.0293 67.6218 17.4202C67.8044 18.5465 66.8315 18.8994 65.9191 19.0071C65.2715 19.0834 64.6094 19.2096 63.9751 19.3052L64.163 18.7418C65.3153 18.5184 66.1801 18.3501 67.3597 18.2515C66.9879 17.0583 65.8138 15.1085 64.2642 15.7994C61.8109 16.8931 63.2067 18.4391 60.1349 19.3396Z" fill="#18658B"/>
<path d="M57.2271 22.9209C57.3927 23.0799 57.5887 23.2392 57.7285 23.42C57.4255 24.6335 57.533 25.6241 58.1934 26.7092C58.7823 27.677 59.6453 28.2742 60.7494 28.5451C64.0576 29.3564 66.8069 27.439 67.8909 27.6727C67.9028 27.6753 67.9149 27.6772 67.9268 27.6797C67.934 27.6813 67.9411 27.6832 67.9482 27.6851C67.5892 27.9987 67.2051 28.2897 66.775 28.502C64.8583 29.4484 62.0934 29.6626 60.0609 28.9824C58.9111 28.5975 57.8985 27.8515 57.3632 26.7538C56.8242 25.6485 56.8189 24.08 57.2271 22.9209Z" fill="#18658B"/>
<path d="M73.8387 25.5475C73.9666 25.4601 74.1525 25.4072 74.2985 25.3496C74.7763 26.0414 75.2981 26.682 75.1271 27.5746C75.044 28.0087 74.7783 28.3614 74.4081 28.6015C73.4356 29.232 71.7596 29.1465 70.654 28.9107C70.1703 28.8076 69.6761 28.5984 69.2827 28.2973L69.4391 27.8581C69.7185 28.0087 70.0129 28.1302 70.3175 28.2208C71.2733 28.5115 72.9169 28.6624 73.8109 28.188C74.1074 28.0306 74.3239 27.7837 74.415 27.4595C74.6128 26.7558 74.18 26.1285 73.8387 25.5475Z" fill="#18658B"/>
<path d="M57.8394 21.7432C59.24 19.8087 61.9337 19.1716 64.1632 18.7412L63.9752 19.3047C62.1389 19.7094 59.7839 20.3816 58.5032 21.8486L57.8394 21.7432Z" fill="#18658B"/>
<path d="M68.359 27.2699C68.191 26.9127 68.2204 26.8566 68.3138 26.4916L68.4717 26.3457C68.8464 26.506 69.2024 27.4913 69.4393 27.8591L69.2829 28.2983C68.9116 28.022 68.6399 27.6316 68.359 27.2699Z" fill="#18658B"/>
<path d="M57.8393 21.7432L58.5031 21.8486C58.181 22.3591 57.9515 22.8633 57.7284 23.4202C57.5887 23.2394 57.3926 23.0801 57.2271 22.9211C57.4048 22.5057 57.5978 22.1258 57.8393 21.7432Z" fill="#2F6792"/>
<path d="M63.6002 25.8913C59.8124 23.5703 65.0922 19.7768 67.7818 20.7282C68.6193 21.9132 67.5874 24.4977 66.3975 25.3142C66.327 25.3635 66.2533 25.408 66.1768 25.4476C65.6246 26.0995 64.361 25.9234 63.6002 25.8913ZM67.4709 20.9052C66.0493 21.1592 64.2889 21.4624 63.3987 22.7022C62.1855 24.3917 63.8829 26.1039 65.6298 25.1479C67.4883 23.9205 67.1925 22.8505 67.4709 20.9052Z" fill="#18658B"/>
<path d="M41.1002 16.3028C43.2123 11.1831 53.2979 10.1477 55.5918 15.7415C56.7154 18.4814 55.5553 21.4516 52.7274 22.5042C50.6042 23.3137 48.6953 23.3725 46.4745 23.4062C47.251 24.3336 47.9361 24.8615 49.2233 24.9828C50.0711 25.0587 50.9241 24.9139 51.6978 24.563C52.842 24.0456 54.7731 22.1542 55.852 23.4743C56.9205 24.8835 55.8212 26.8696 54.6197 27.7701C52.5284 29.3376 49.6843 29.5564 47.1695 29.3627C41.8166 28.9505 38.4297 24.0031 40.1896 18.8928C40.2678 17.9797 40.6935 17.1135 41.1002 16.3028ZM46.0644 20.4711C46.5916 20.2945 47.3712 20.3527 47.9458 20.3621C49.414 19.9127 49.851 19.5722 50.3431 18.0711C49.9503 16.7093 49.9265 16.541 48.598 15.9407C46.5567 16.4013 45.1985 18.4803 45.8 20.4357L46.0644 20.4711Z" fill="#18658B"/>
<path d="M41.1 16.3027C41.1203 16.3636 41.2101 16.6071 41.2154 16.6497C41.2867 17.2158 40.5416 18.5588 40.1895 18.8928C40.2676 17.9796 40.6933 17.1135 41.1 16.3027Z" fill="#3D8EC4"/>
<path d="M45.636 13.2679C46.8733 12.624 49.442 12.471 50.7575 12.8572C51.6345 13.0668 52.4368 13.3463 53.1816 13.8694C55.2732 15.308 56.0544 18.2605 54.5707 20.4053C53.5144 21.9321 51.5111 22.3462 49.8074 22.6634C48.4338 22.9757 46.5018 22.5586 45.9125 23.2159C45.7138 24.3987 48.044 25.4543 48.9691 25.5622C49.9847 25.7734 50.8247 25.4252 51.7273 25.1716C52.4882 24.958 54.8021 22.8442 55.3133 23.8013C55.9768 25.0433 55.3934 26.59 54.2337 27.3054C50.5585 29.5723 44.3993 29.4887 41.7617 25.6779C40.1177 23.3308 40.0119 19.1238 41.6529 16.7648C42.5137 15.0946 43.9297 13.9947 45.636 13.2679ZM46.0643 20.4703C46.5916 20.2937 47.3712 20.352 47.9457 20.3614C49.414 19.912 49.8509 19.5715 50.343 18.0704C49.9503 16.7086 49.9265 16.5403 48.598 15.94C46.5566 16.4006 45.1985 18.4795 45.8 20.435L46.0643 20.4703Z" fill="#47C2FF"/>
<path d="M45.6359 13.2686L45.7918 13.4632C45.5639 14.0339 42.9759 15.3627 42.6536 16.4289C42.6163 16.5522 41.7988 17.7282 41.7008 17.7751C41.5602 17.3837 41.8901 17.1759 41.6528 16.7654C42.5136 15.0952 43.9296 13.9954 45.6359 13.2686Z" fill="#9ACEF0"/>
<path d="M50.7576 12.8574C51.6345 13.0671 52.4368 13.3466 53.1817 13.8697L52.9795 14.0333C52.4019 14.1531 51.037 13.4242 50.7576 12.8574Z" fill="#71BCEC"/>
<path d="M45.8001 20.4357L45.3637 20.5272C44.2652 19.7828 45.94 15.5483 48.0867 15.4996C50.3409 15.4484 50.9458 16.6465 50.8849 18.7528C50.1458 20.0867 49.2999 20.8262 47.6943 20.8616L47.9459 20.3621C49.4141 19.9127 49.8511 19.5722 50.3432 18.0711C49.9504 16.7094 49.9266 16.541 48.5981 15.9407C46.5568 16.4013 45.1986 18.4803 45.8001 20.4357Z" fill="#18658B"/>
<path d="M46.0642 20.4704C46.5914 20.2938 47.3711 20.352 47.9456 20.3614L47.694 20.8609C47.1978 20.8691 46.6353 20.9141 46.1749 20.7458L46.0642 20.4704Z" fill="#193455"/>
<path d="M142.284 14.7409C142.619 13.1256 142.713 12.9415 144.213 12.5117C144.424 12.451 144.953 12.0091 145.021 11.8199C145.499 10.4759 145.132 8.95083 146.471 7.94829C147.282 7.34144 148.691 7.1355 149.707 7.24821C152.007 7.61672 152.005 9.58158 151.761 11.2725C151.717 11.603 151.679 11.9993 151.591 12.316C153.065 12.2949 155.183 11.9541 156.069 13.3552C157.435 16.664 153.641 16.2423 151.724 16.3295L151.46 16.4628C151.083 17.6538 151.154 22.5342 151.726 23.7194C152.802 25.9526 155.56 22.681 156.286 25.3468C156.349 25.6059 156.433 25.8728 156.473 26.1359C156.133 27.8892 155.043 28.6866 153.366 29.0962C150.342 29.8347 146.176 29.3429 145.289 25.796C144.522 22.7327 145.423 19.5817 144.683 16.4348C143.107 16.2387 142.892 16.2132 142.284 14.7409Z" fill="#47C2FF"/>
<path d="M142.284 14.7409C142.619 13.1256 142.713 12.9415 144.213 12.5117C144.424 12.451 144.953 12.0091 145.021 11.8199C145.499 10.4759 145.132 8.95083 146.471 7.94829C147.282 7.34144 148.691 7.1355 149.707 7.24821C152.007 7.61672 152.005 9.58158 151.761 11.2725L151.344 11.6248L151.21 11.5326C150.978 10.071 151.468 9.94827 150.716 8.36596C149.858 7.90343 148.98 7.67098 147.962 7.91668C147.159 8.11028 146.764 8.71316 146.359 9.33666C145.861 10.1051 145.838 12.0415 145.399 12.4628C144.522 13.3034 142.68 12.903 143.062 14.9853C143.118 15.2905 143.447 15.536 143.712 15.6561C144.375 15.9542 145.272 16.1605 145.479 16.9786C146.353 20.4124 144.142 26.0634 148.034 28.1445C149.585 28.9736 152.563 28.9168 154.134 28.1502C154.62 27.9466 155.08 27.6693 155.426 27.2715C155.848 26.9934 156.161 26.5261 156.473 26.1359C156.133 27.8892 155.043 28.6866 153.366 29.0962C150.342 29.8347 146.176 29.3429 145.289 25.796C144.522 22.7327 145.423 19.5817 144.683 16.4348C143.107 16.2387 142.892 16.2132 142.284 14.7409Z" fill="#18658B"/>
<path d="M151.59 12.317C153.062 12.2959 155.18 11.9551 156.065 13.3562C157.435 16.6237 153.739 16.1831 151.723 16.3305L151.459 16.4638C151.083 17.6548 151.153 22.5352 151.725 23.7204C152.801 25.9473 155.586 22.5626 156.296 25.333C155.962 25.3335 155.436 24.9042 155.141 24.6872C154.282 24.957 153.554 25.2655 152.63 25.158C150.858 24.986 150.678 22.8272 150.625 21.4335C150.568 19.9116 150.636 18.2385 150.845 16.7184C150.924 16.1448 151.056 16.143 151.498 15.8311C152.424 15.8011 154.504 16.0266 155.094 15.6094C155.358 15.4111 155.628 15.0869 155.725 14.7588C155.823 14.4307 155.406 13.7029 155.379 13.6644C155.352 13.626 154.876 13.0627 154.362 12.9491C153.642 12.7901 152.406 13.0792 151.717 12.7933C151.668 12.7734 151.609 12.4072 151.59 12.317Z" fill="#18658B"/>
<path d="M156.296 25.333C155.962 25.3335 155.436 24.9042 155.141 24.6872C155.92 25.5701 155.947 26.1543 155.428 27.2783C155.885 26.9638 156.409 26.6221 156.475 26.1399C156.417 25.7705 156.372 25.6294 156.296 25.333Z" fill="#18658B"/>
<path d="M155.772 26.0596C155.754 26.4919 155.752 26.7128 155.426 27.2724C155.08 27.6702 154.62 27.9475 154.134 28.1511L154.082 27.8553C154.42 27.201 155.257 26.6598 155.772 26.0596Z" fill="#9ACEF0"/>
<path d="M155.101 15.6039C154.979 15.279 155.212 14.1062 155.32 13.7337L155.385 13.6611C155.633 14.008 155.708 14.3722 155.76 14.794C155.568 15.113 155.366 15.4443 155.101 15.6039Z" fill="#9ACEF0"/>
<path d="M148.224 8.53567L148.337 8.55346L148.306 8.6886L147.405 9.14014C147.034 9.67879 146.816 10.2103 146.602 10.82L146.358 10.6859C146.307 10.5509 146.258 10.401 146.263 10.2561C146.281 9.71606 146.643 9.2413 147.015 8.87925C147.395 8.50894 147.715 8.52933 148.224 8.53567Z" fill="#F0F5F6"/>
<path d="M134.67 12.203C134.335 9.99202 132.243 8.90645 133.99 6.55734C135.309 4.78165 137.98 4.08475 139.894 5.32314C140.647 5.83052 141.05 7.03753 141.102 7.90448C141.335 11.8819 140.931 15.895 140.952 19.8769C140.956 20.6945 140.859 22.712 141.151 23.3523C142.228 25.7211 143.464 28.5302 139.609 29.0379C138.246 29.2174 135.827 29.2233 134.619 28.388C134.436 28.2523 134.185 27.9925 134.041 27.825C133.4 25.5309 134.48 24.5941 134.726 22.5129C135.008 20.1227 134.92 17.4325 134.923 15.003C134.909 14.1369 134.863 13.04 134.67 12.203ZM135.481 14.7711L135.567 15.8462L135.687 15.8096C136.356 15.317 136.2 11.7142 135.618 11.0062C135.411 10.7547 135.325 10.7607 135.043 10.6447C135.24 10.9634 135.347 11.089 135.288 11.4648C135.445 12.6954 135.509 13.5267 135.481 14.7711Z" fill="#18658B"/>
<path d="M135.989 6.4669C136.254 5.46969 138.439 5.70237 139.184 5.77963C139.702 6.15323 139.966 6.44912 140.218 7.04543C140.671 8.75734 140.491 10.3129 140.455 12.0767C140.38 15.6795 139.947 19.2224 140.467 22.8159C140.697 24.4014 142.1 26.1925 141.485 27.5815C141.3 27.9474 140.724 28.2027 140.349 28.2724C138.96 28.5313 136.482 28.7076 135.242 28.0721C133.568 27.2148 135.095 24.0745 135.374 22.6859C135.605 21.5317 135.282 16.3846 135.567 15.8461L135.529 15.3274C135.529 15.3274 135.285 11.6924 135.285 11.0737C135.143 10.7861 135.163 10.8604 135.043 10.6447C134.66 10.4728 134.103 9.29996 134.049 8.86654C133.942 7.99903 134.072 7.6567 134.583 6.96704C134.743 7.21195 134.66 7.14761 134.912 7.26667C135.363 7.11544 135.649 6.79383 135.989 6.4669Z" fill="#47C2FF"/>
<path d="M134.583 6.96632C135.651 5.54306 137.552 4.94131 139.184 5.77891C138.439 5.70165 136.254 5.46897 135.989 6.46618C135.649 6.79311 135.363 7.11472 134.912 7.26595C134.66 7.14689 134.743 7.21123 134.583 6.96632Z" fill="#47C2FF"/>
<path d="M134.669 11.9015L135.288 11.084C135.444 12.4467 135.604 14.4775 135.576 15.8555C135.472 15.9075 135.007 14.9938 134.922 15.0021C134.909 14.043 134.863 12.8283 134.669 11.9015Z" fill="#18658B"/>
<path d="M135.576 15.8555C135.472 15.9075 135.007 14.9938 134.922 15.0021C134.975 17.5857 134.986 19.0537 134.922 21.8039L135.432 22.0049C135.479 19.6068 135.543 18.1841 135.576 15.8555Z" fill="#18658B"/>
<path d="M7.62781 0.578125C7.83167 0.654363 7.9221 0.722899 8.04916 0.898032C8.18 1.37744 8.17416 1.91643 8.08866 2.40399C7.97671 3.04279 7.88284 3.71749 7.31691 4.11114L7.02353 3.85909C6.90196 3.6451 6.89658 3.46634 6.90047 3.22755C6.91421 2.40513 7.01094 1.16605 7.62781 0.578125Z" fill="#18658B"/>
<path d="M3.01662 1.72461C3.14768 1.75032 3.26833 1.79133 3.3757 1.87267C3.86517 2.24355 4.85887 3.45 4.91129 4.07066C4.93201 4.31615 4.74325 4.47338 4.59983 4.65508C4.50379 4.63039 4.40729 4.59391 4.32247 4.54248C3.79202 4.22121 2.84319 3.00797 2.72998 2.40373C2.67447 2.10739 2.85487 1.94517 3.01662 1.72461Z" fill="#18658B"/>
<path d="M0.750225 4.78906C0.760184 4.79031 0.770141 4.79144 0.7801 4.7928C1.51224 4.89543 2.78845 5.22531 3.25353 5.8283C3.30687 6.13609 3.22011 6.21867 3.07153 6.47888C2.26121 6.28823 1.10908 6.17812 0.541092 5.52732C0.483744 5.18373 0.587452 5.08677 0.750225 4.78906Z" fill="#18658B"/>
<path d="M97.0138 14.162C96.3442 14.4736 95.8176 14.8986 95.1766 14.4225L95.1445 14.196C95.5475 13.121 96.5479 12.9623 97.2107 14.0477L97.0138 14.162Z" fill="#1E5380"/>
<path d="M135.971 6.28902C136.023 5.10079 138.191 5.2854 139.085 5.72299C139.561 5.90549 140.239 6.82872 140.235 7.05339C140.277 7.36628 140.217 7.52606 140.098 7.79924L139.992 7.84591C138.966 5.9259 138.014 5.54204 135.971 6.28902Z" fill="#F0F5F6"/>
<path d="M16.2969 17.4753C16.2969 20.146 14.1319 22.311 11.4612 22.311C8.7905 22.311 6.62549 20.146 6.62549 17.4753C6.62549 14.8047 8.7905 12.6396 11.4612 12.6396C14.1319 12.6396 16.2969 14.8047 16.2969 17.4753Z" fill="#18658B"/>
<path d="M15.7246 17.4753C15.7246 19.83 13.8158 21.7388 11.4612 21.7388C9.10656 21.7388 7.19775 19.83 7.19775 17.4753C7.19775 15.1207 9.10656 13.2119 11.4612 13.2119C13.8158 13.2119 15.7246 15.1207 15.7246 17.4753Z" fill="#BDDDF2"/>
<path d="M10.7686 14.5729C10.8039 14.3985 10.9582 14.2725 11.1373 14.2725H11.8418C12.0208 14.2725 12.1752 14.3985 12.2105 14.5729L12.3813 15.3975C12.5474 15.4682 12.7029 15.5589 12.8443 15.6661L13.643 15.401C13.8126 15.3445 13.9987 15.4151 14.0883 15.5706L14.4405 16.1809C14.53 16.3364 14.4982 16.5319 14.3639 16.6509L13.736 17.2093C13.7466 17.2965 13.7514 17.386 13.7514 17.4767C13.7514 17.5674 13.7455 17.6569 13.736 17.7441L14.3651 18.3037C14.4994 18.4227 14.53 18.6194 14.4417 18.7737L14.0894 19.3839C13.9999 19.5383 13.8138 19.6101 13.6442 19.5536L12.8454 19.2885C12.7029 19.3957 12.5474 19.4852 12.3825 19.5571L12.2128 20.3805C12.1763 20.5561 12.022 20.6809 11.8441 20.6809H11.1397C10.9606 20.6809 10.8063 20.5549 10.7709 20.3805L10.6013 19.5571C10.4352 19.4864 10.2809 19.3957 10.1383 19.2885L9.3361 19.5536C9.16646 19.6101 8.98033 19.5394 8.8908 19.3839L8.53857 18.7737C8.44904 18.6182 8.48085 18.4227 8.61514 18.3037L9.24421 17.7441C9.23361 17.6569 9.2289 17.5674 9.2289 17.4767C9.2289 17.386 9.23479 17.2965 9.24421 17.2093L8.61514 16.6497C8.48085 16.5307 8.45022 16.334 8.53857 16.1797L8.8908 15.5695C8.98033 15.414 9.16646 15.3433 9.3361 15.3998L10.1348 15.6649C10.2773 15.5577 10.4328 15.4682 10.5978 15.3963L10.7686 14.5729ZM11.4895 18.4191C12.0102 18.4168 12.4308 17.9939 12.4284 17.4732C12.4261 16.9525 12.0032 16.5319 11.4825 16.5343C10.9618 16.5366 10.5412 16.9595 10.5436 17.4802C10.5459 18.0009 10.9688 18.4215 11.4895 18.4191Z" fill="#18658B"/>
<path d="M11.8976 16.2334C11.6585 16.152 11.4012 16.14 11.1555 16.1989C10.9098 16.2578 10.6859 16.3851 10.5096 16.5662C10.3334 16.7472 10.2121 16.9744 10.1598 17.2216C10.1075 17.4688 10.1264 17.7257 10.2142 17.9626L10.6785 17.7904C10.6233 17.6414 10.6114 17.4797 10.6443 17.3241C10.6772 17.1686 10.7536 17.0255 10.8645 16.9116C10.9754 16.7977 11.1163 16.7176 11.2709 16.6805C11.4255 16.6435 11.5875 16.651 11.738 16.7022L11.8976 16.2334Z" fill="#47C2FF"/>
<path d="M10.2116 17.9402C10.2966 18.1781 10.4474 18.387 10.6464 18.5426C10.8453 18.6983 11.0844 18.7944 11.3357 18.8197C11.5871 18.845 11.8405 18.7985 12.0665 18.6857C12.2925 18.5728 12.4819 18.3982 12.6127 18.182L12.189 17.9256C12.1067 18.0617 11.9875 18.1716 11.8453 18.2426C11.703 18.3136 11.5435 18.3429 11.3854 18.3269C11.2272 18.311 11.0767 18.2506 10.9515 18.1526C10.8263 18.0546 10.7314 17.9232 10.6779 17.7735L10.2116 17.9402Z" fill="#3D8EC4"/>
<path d="M12.2478 18.5894C12.4556 18.4456 12.6183 18.246 12.7172 18.0135C12.8161 17.781 12.847 17.5252 12.8064 17.2759C12.7658 17.0265 12.6553 16.7938 12.4878 16.6047C12.3203 16.4156 12.1026 16.2778 11.8599 16.2075L11.722 16.6831C11.8746 16.7274 12.0117 16.8141 12.1171 16.9331C12.2225 17.0521 12.292 17.1986 12.3176 17.3555C12.3431 17.5124 12.3237 17.6733 12.2615 17.8197C12.1992 17.966 12.0968 18.0916 11.9661 18.1821L12.2478 18.5894Z" fill="#30719C"/>
<circle cx="11.467" cy="17.48" r="0.959473" fill="#71BCEC"/>
<path d="M105.914 20.7134C105.747 22.1028 104.837 22.6579 104.444 23.061C104.05 23.4651 104.121 23.5456 104.147 24.1384C104.151 24.2117 104.141 24.2852 104.116 24.3543C104.091 24.4233 104.052 24.4865 104.001 24.54C103.951 24.5934 103.89 24.636 103.823 24.665C103.755 24.6941 103.682 24.709 103.609 24.7088H102.047C101.974 24.7087 101.901 24.6936 101.834 24.6645C101.766 24.6354 101.706 24.5928 101.655 24.5395C101.605 24.4861 101.566 24.423 101.541 24.354C101.515 24.2851 101.505 24.2117 101.509 24.1384C101.509 23.5568 101.563 23.4217 101.213 23.061C100.766 22.6145 99.7156 21.9841 99.7156 20.2505C99.713 19.8198 99.7995 19.3933 99.9698 18.9978C100.14 18.6023 100.391 18.2464 100.705 17.9524C101.02 17.6585 101.392 17.433 101.798 17.29C102.205 17.1471 102.636 17.0899 103.066 17.1219C103.495 17.154 103.913 17.2747 104.294 17.4764C104.674 17.6781 105.009 17.9564 105.276 18.2938C105.544 18.6313 105.739 19.0204 105.848 19.4369C105.958 19.8533 105.98 20.2879 105.914 20.7134Z" fill="#FDCE39" stroke="#18658B" stroke-width="0.6" stroke-linecap="round" stroke-linejoin="round"/>
<path d="M102.37 18.4838C102.023 18.4839 101.69 18.6218 101.445 18.8672C101.2 19.1125 101.062 19.4452 101.062 19.7921M106.051 16.8365L106.815 16.0722M102.828 14.7715V15.6427M98.8567 16.0716L99.6157 16.8365" stroke="#FDCE39" stroke-width="0.8" stroke-linecap="round" stroke-linejoin="round"/>
<path d="M101.924 24.752V25.6033C101.924 25.8242 102.103 26.0033 102.324 26.0033H103.343C103.564 26.0033 103.743 25.8242 103.743 25.6033V24.752" stroke="#18658B" stroke-width="0.6" stroke-linecap="round"/>
<path d="M102.416 18.4404C102.069 18.4406 101.737 18.5785 101.492 18.8238C101.246 19.0692 101.109 19.4019 101.109 19.7487" stroke="#F0F5F6" stroke-width="0.8" stroke-linecap="round" stroke-linejoin="round"/>
<path fill-rule="evenodd" clip-rule="evenodd" d="M102.836 21.4722C103.185 21.8489 103.514 21.9609 103.664 21.9941C103.657 22.0258 103.65 22.0573 103.643 22.0885C103.628 22.1561 103.614 22.2228 103.597 22.2887L103.468 22.8628L103.125 24.4215L103.241 24.4213L103.623 22.8922L103.762 22.32C103.778 22.2581 103.793 22.1951 103.807 22.1317C103.818 22.0878 103.828 22.0437 103.839 21.9997C103.975 21.9905 104.106 21.9479 104.208 21.8545C104.312 21.7517 104.366 21.6173 104.342 21.4739C104.331 21.4052 104.28 21.3164 104.18 21.286C104.132 21.2697 104.079 21.2685 104.03 21.2826C103.989 21.2979 103.952 21.3224 103.922 21.3541C103.832 21.4535 103.796 21.5527 103.76 21.6511L103.751 21.6737C103.733 21.7269 103.718 21.7802 103.703 21.8328C103.703 21.8328 103.55 21.8445 103.221 21.6236C103.075 21.525 103.012 21.4484 102.965 21.3916C102.954 21.3777 102.944 21.3651 102.933 21.3536C102.99 21.2902 103.045 21.2206 103.088 21.1363C103.11 21.0891 103.129 21.038 103.136 20.9806C103.142 20.9231 103.131 20.8581 103.099 20.8021C103.063 20.74 103.008 20.6916 102.942 20.6648C102.909 20.6531 102.873 20.6475 102.836 20.6475C102.799 20.6475 102.762 20.6529 102.73 20.6648C102.664 20.6917 102.609 20.74 102.573 20.8021C102.54 20.8583 102.53 20.9231 102.536 20.9806C102.544 21.0348 102.56 21.0874 102.585 21.1363C102.627 21.2206 102.682 21.2903 102.739 21.3536C102.729 21.365 102.718 21.3776 102.707 21.3913C102.66 21.4481 102.598 21.5249 102.451 21.6236C102.122 21.8447 101.969 21.8328 101.969 21.8328C101.955 21.7792 101.939 21.7262 101.921 21.6737L101.911 21.6465C101.875 21.5496 101.838 21.4519 101.75 21.3541C101.72 21.3224 101.683 21.2979 101.642 21.2826C101.593 21.2685 101.541 21.2697 101.492 21.286C101.392 21.3164 101.341 21.4052 101.33 21.4739C101.305 21.6173 101.36 21.7517 101.465 21.8545C101.567 21.9479 101.697 21.9905 101.834 21.9997C101.843 22.037 101.851 22.0743 101.86 22.1116C101.876 22.1817 101.892 22.2515 101.91 22.32L102.049 22.8922L102.431 24.4213L102.547 24.4215L102.204 22.8628L102.074 22.2887C102.057 22.2179 102.041 22.1464 102.025 22.0737L102.008 21.9941C102.158 21.9609 102.487 21.8489 102.836 21.4722ZM102.727 20.8709C102.692 20.9271 102.704 21.0033 102.739 21.0779C102.766 21.1317 102.798 21.1825 102.836 21.2295C102.873 21.1809 102.908 21.1307 102.934 21.0779C102.968 21.0031 102.981 20.9271 102.945 20.8709C102.915 20.8263 102.877 20.8008 102.836 20.8008C102.796 20.8008 102.757 20.8263 102.727 20.8709ZM101.788 21.8317C101.713 21.8176 101.641 21.7866 101.595 21.7421C101.528 21.6798 101.492 21.5803 101.506 21.503C101.513 21.4629 101.532 21.4423 101.553 21.4372C101.564 21.4318 101.582 21.4338 101.582 21.4338L101.585 21.436C101.593 21.4402 101.606 21.4469 101.617 21.4601C101.676 21.5223 101.72 21.6256 101.754 21.7208C101.767 21.7571 101.778 21.7947 101.788 21.8317ZM103.918 21.721C103.905 21.7571 103.894 21.7947 103.884 21.8317C103.959 21.8176 104.031 21.7866 104.078 21.7423C104.144 21.68 104.181 21.5804 104.166 21.5031C104.159 21.4632 104.14 21.4424 104.119 21.4374C104.108 21.4318 104.091 21.434 104.091 21.434L104.087 21.4358C104.079 21.44 104.067 21.4466 104.055 21.4603C103.995 21.5223 103.952 21.6258 103.918 21.721Z" fill="#18658B"/>
</g>
<defs>
<clipPath id="clip0_122117_8350">
<rect width="157" height="30" fill="white"/>
</clipPath>
</defs>
</svg>
